<svg width="74" height="55" viewBox="0 0 74 55" fill="none" xmlns="http://www.w3.org/2000/svg">
<path fill-rule="evenodd" clip-rule="evenodd" d="M42.2778 29.0962C42.2778 38.0799 34.9948 45.3631 26.0112 45.3631C17.0276 45.3631 9.74457 38.0799 9.74457 29.0962C9.74457 27.1368 10.0773 25.2883 10.7058 23.5507C12.9609 17.3027 18.95 12.8293 26.0112 12.8293C28.3033 12.8293 30.4475 13.31 32.4069 14.1603C38.2112 16.6373 42.2778 22.4046 42.2778 29.0962Z" fill="#FFC34A"/>
<path opacity="0.6" fill-rule="evenodd" clip-rule="evenodd" d="M27.9704 24.4386C26.5656 24.2907 25.1977 23.9949 23.7929 24.0689C21.5008 24.1798 20.022 25.3628 18.9499 27.3223C18.0256 29.0229 17.3232 31.0562 15.3268 31.7956C14.4765 32.1284 13.4414 32.0175 12.7759 31.4259C12.4062 31.0932 12.1844 30.6126 11.9996 30.169C11.9996 30.132 11.9626 30.132 11.9626 30.095C10.1881 25.8065 11.2232 20.8155 14.5505 17.5621C17.4711 14.6785 21.5377 12.8669 25.9741 12.8669C27.2311 12.8669 28.4141 13.0148 29.5601 13.2736C32.148 13.8651 34.1813 15.8985 34.588 18.5234C34.588 18.6343 34.625 18.7452 34.625 18.8561C35.1056 22.7749 31.5565 24.8083 27.9704 24.4386Z" fill="#FFE332"/>
<path opacity="0.3" fill-rule="evenodd" clip-rule="evenodd" d="M17.3972 19.2998C17.1384 19.2998 16.8796 19.2998 16.6208 19.3737C15.2899 19.7434 14.1809 20.7786 13.7372 22.1095C13.4784 22.9229 13.5154 23.995 14.5136 24.3647C14.6984 24.4387 14.9202 24.4387 15.1051 24.4387C15.8815 24.4017 16.473 23.9211 17.0645 23.4774L18.9869 22.0356C19.2457 21.8138 19.4675 21.555 19.6154 21.2592C19.9111 20.5198 19.5045 19.9653 18.9499 19.6695C18.6172 19.4847 18.2105 19.3737 17.8408 19.3737L17.3972 19.2998Z" fill="white"/>
<path opacity="0.15" fill-rule="evenodd" clip-rule="evenodd" d="M17.8777 37.5628C17.7668 38.1913 17.8037 38.8568 18.0995 39.4483C19.6522 42.9605 25.3455 44.772 28.0443 41.6295C29.1904 40.2986 29.3382 38.3762 28.3031 36.9713C27.8595 36.3798 27.194 35.9731 26.5286 35.6404C24.3474 34.6422 20.6874 33.7549 18.8019 35.7143C18.3213 36.2319 17.9886 36.8974 17.8777 37.5628Z" fill="white"/>
<path opacity="0.15" fill-rule="evenodd" clip-rule="evenodd" d="M21.7227 39.8893C21.5749 40.2959 21.6488 40.8135 21.9446 41.1832C22.2403 41.5529 22.7209 41.8487 23.2015 41.9966C23.6821 42.1444 24.2736 42.1814 24.7173 41.8857C25.4936 41.2572 25.2349 39.8523 24.4215 39.4087C24.1258 39.2608 23.793 39.1868 23.4973 39.1499C22.7209 39.0759 21.9446 39.1129 21.7227 39.8893Z" fill="white"/>
<path fill-rule="evenodd" clip-rule="evenodd" d="M26.0848 29.0966C26.0848 29.1336 26.0479 29.1706 26.0109 29.1706C25.9739 29.1706 25.937 29.1336 25.937 29.0966C25.937 29.0966 25.937 29.0966 25.937 29.0597C25.937 29.0227 25.9739 29.0227 26.0109 29.0227H26.0479C26.0848 29.0597 26.0848 29.0966 26.0848 29.0966Z" fill="black"/>
<path fill-rule="evenodd" clip-rule="evenodd" d="M26.0109 10.0928C25.0497 10.0928 24.2364 9.35344 24.1255 8.39222L23.497 1.33092C23.4231 0.628489 24.0146 0 24.717 0H27.2679C27.9703 0 28.5619 0.628489 28.4879 1.33092L27.8594 8.39222C27.8225 9.35344 27.0091 10.0928 26.0109 10.0928Z" fill="#FFC34A"/>
<path fill-rule="evenodd" clip-rule="evenodd" d="M9.59649 19.5582C9.11588 20.4085 8.04376 20.7412 7.15649 20.3345L0.72378 17.3769C0.0583274 17.0812 -0.20046 16.2678 0.169236 15.6393L1.46317 13.4211C1.83287 12.7926 2.6462 12.6078 3.23771 13.0145L9.00497 17.0812C9.85527 17.6357 10.1141 18.7079 9.59649 19.5582Z" fill="#FFC34A"/>
<path fill-rule="evenodd" clip-rule="evenodd" d="M9.59649 38.5229C10.0771 39.3732 9.85527 40.4453 9.04194 40.9999L3.23771 45.0666C2.6462 45.4733 1.83287 45.2884 1.46317 44.6599L0.169236 42.4417C-0.20046 41.8132 0.0583274 40.9999 0.72378 40.7041L7.15649 37.7095C8.08073 37.3398 9.11588 37.6726 9.59649 38.5229Z" fill="#FFC34A"/>
<path fill-rule="evenodd" clip-rule="evenodd" d="M42.4255 19.5582C41.9449 18.7079 42.1667 17.6357 42.98 17.0812L48.7842 13.0145C49.3758 12.6078 50.1891 12.7926 50.5588 13.4211L51.8527 15.6393C52.2224 16.2678 51.9636 17.0442 51.2982 17.3769L44.9024 20.3715C43.9782 20.7412 42.9431 20.4085 42.4255 19.5582Z" fill="#FFC34A"/>
<path fill-rule="evenodd" clip-rule="evenodd" d="M16.6207 12.8675C16.251 13.0893 15.7704 12.9784 15.5116 12.6087L13.4413 9.31837C13.1455 8.83776 13.2934 8.20927 13.774 7.95048C14.2546 7.65472 14.8831 7.83956 15.1419 8.35715L16.9534 11.7954C17.1383 12.1651 16.9904 12.6457 16.6207 12.8675Z" fill="#FFE332"/>
<path fill-rule="evenodd" clip-rule="evenodd" d="M7.26735 29.1702C7.26735 29.6138 6.93462 29.9835 6.49099 29.9835L2.60918 30.1314C2.05464 30.1684 1.57404 29.7247 1.57404 29.1702C1.57404 28.6156 2.01767 28.172 2.60918 28.2089L6.49099 28.3568C6.93462 28.3938 7.26735 28.7635 7.26735 29.1702Z" fill="#FFE332"/>
<path fill-rule="evenodd" clip-rule="evenodd" d="M35.438 12.7926C35.0683 12.5708 34.9205 12.0902 35.1053 11.6835L36.9168 8.2453C37.1756 7.76468 37.8041 7.57983 38.2847 7.83862C38.7653 8.13438 38.9132 8.7259 38.6174 9.20652L36.5471 12.4969C36.2883 12.9035 35.8077 13.0144 35.438 12.7926Z" fill="#FFE332"/>
<path fill-rule="evenodd" clip-rule="evenodd" d="M73.9977 47.9127C74.0346 49.2436 73.628 50.5375 72.8886 51.6097C71.7795 53.3103 69.8571 54.4934 67.528 54.4934H24.976C22.4251 54.4934 20.096 53.0145 19.0978 50.6854C18.7281 49.8351 18.5063 48.8739 18.3954 47.9127C18.3214 47.3211 18.3214 46.6926 18.3214 46.1011C18.5433 41.1471 21.7226 36.1931 26.5287 36.8586C26.5287 36.8586 26.5287 36.8586 26.5657 36.8586C26.4917 36.1562 26.5287 35.4537 26.6026 34.7883C27.7487 25.5088 42.0559 20.0002 48.3777 30.3888C48.8953 31.2391 49.3389 32.1634 49.7456 33.1986C56.1413 27.0615 67.1953 33.3834 65.125 41.7756C63.7201 47.3581 63.7201 47.3581 65.125 41.7756C68.8589 41.2211 71.3728 42.4781 72.7777 44.4005C73.591 45.5096 73.9607 46.7296 73.9977 47.9127Z" fill="#EDEDED"/>
<path opacity="0.5" fill-rule="evenodd" clip-rule="evenodd" d="M48.7843 35.7486C48.7104 36.8577 48.4146 38.1517 47.3795 38.6323C46.4922 39.039 45.4571 38.6693 44.6437 38.1517C43.8304 37.6341 43.091 36.9317 42.1668 36.6359C40.3183 36.0814 38.4698 37.3014 37.065 38.5953C35.6601 39.8893 34.2553 41.442 32.3698 41.7008C30.6692 41.9596 28.9317 41.0354 27.8965 39.7044C27.2311 38.8911 26.8244 37.8929 26.5286 36.8947C25.5674 26.4322 41.5753 19.2969 48.3407 30.388C48.7474 32.1256 48.8952 33.9371 48.7843 35.7486Z" fill="white"/>
<path opacity="0.5" fill-rule="evenodd" clip-rule="evenodd" d="M32.4065 43.2173C31.4083 44.1416 29.7447 43.6609 28.5247 44.2525C26.898 45.0288 26.6762 47.284 25.4193 48.541C24.0884 49.8719 21.7223 49.798 20.2065 48.6889H20.1696C18.8017 47.6537 18.2472 45.9161 18.5799 44.2525C19.4302 40.0009 22.3878 36.3409 26.5283 36.9324C26.5283 36.9324 26.5283 36.9324 26.5653 36.9324C26.4914 36.23 26.5283 35.5275 26.6023 34.8621C29.0792 35.3057 31.3714 36.9324 32.4804 39.1876C32.7762 39.8161 32.998 40.4815 33.072 41.184C33.1089 41.8494 32.9611 42.6997 32.4065 43.2173Z" fill="white"/>
<path opacity="0.9" fill-rule="evenodd" clip-rule="evenodd" d="M40.2444 27.0605C39.9486 26.5429 39.431 26.2472 38.8395 26.2472C37.3977 26.2102 35.9559 26.3581 34.6989 27.0605C34.3292 27.2823 33.9226 27.5781 33.8117 27.9848C33.7377 28.1696 33.7377 28.3914 33.7377 28.5763C33.7377 28.983 33.8486 29.4266 34.1444 29.7593C34.4032 30.0551 34.8468 30.203 35.2165 30.166C35.5862 30.129 35.9929 29.9811 36.3256 29.7593C36.5844 29.5745 36.8062 29.3896 37.028 29.2048C37.4717 28.872 37.9892 28.6872 38.5438 28.5763C38.9874 28.5023 39.431 28.4654 39.8007 28.2436C40.1704 28.0217 40.4662 27.4302 40.2444 27.0605Z" fill="white"/>
<path opacity="0.9" fill-rule="evenodd" clip-rule="evenodd" d="M31.9999 30.3157C31.7412 30.3157 31.4824 30.3896 31.2975 30.5375C30.8909 30.8702 30.5951 31.3139 30.3733 31.7945C30.2624 32.0902 30.1884 32.386 30.2254 32.7187C30.2624 33.0145 30.4472 33.3472 30.743 33.4581C30.9648 33.569 31.2236 33.5691 31.4454 33.5321C32.2587 33.3842 32.9612 32.8296 33.2199 32.0533C33.3308 31.7575 33.3678 31.4248 33.2939 31.092C33.183 30.6484 32.7763 30.3526 32.3327 30.3526L31.9999 30.3157Z" fill="white"/>
<path opacity="0.9" fill-rule="evenodd" clip-rule="evenodd" d="M24.9757 38.5245C23.8297 38.7093 22.7576 39.3008 22.0551 40.2251C21.4266 41.0384 21.02 41.9997 20.8351 42.9979C20.7982 43.2936 20.7982 43.6633 21.02 43.8482C21.1679 43.9591 21.3527 43.996 21.5376 43.996C21.8333 44.033 22.1291 44.033 22.4248 43.8851C22.8685 43.6633 23.0533 43.1827 23.2012 42.7021C23.5709 41.7778 24.1624 40.8166 25.0866 40.5209C25.1606 40.4839 25.1975 40.4839 25.2715 40.4839C25.6042 40.4099 25.9 40.1512 26.0478 39.8554C26.4175 39.079 25.6412 38.3766 24.9757 38.5245Z" fill="white"/>
<path opacity="0.9" fill-rule="evenodd" clip-rule="evenodd" d="M51.1506 33.8274C50.8918 34.0122 50.67 34.2341 50.5221 34.5298C50.3742 34.7886 50.3372 35.0844 50.4482 35.3432C50.67 36.0086 51.4463 36.0456 52.0009 35.7498C52.4445 35.528 52.7772 35.1213 53.1839 34.8256C53.8124 34.345 54.6257 34.0492 55.4021 33.8644C55.6609 33.7904 55.9197 33.7165 56.1045 33.5686C56.2894 33.4207 56.4372 33.125 56.3263 32.8662C56.2154 32.6074 55.8827 32.5334 55.6239 32.4965C54.7366 32.3856 53.8124 32.5334 52.9991 32.9031L52.5924 33.051C52.0748 33.2359 51.5942 33.4947 51.1506 33.8274Z" fill="white"/>
<path opacity="0.2" fill-rule="evenodd" clip-rule="evenodd" d="M65.6423 44.3649C66.2707 44.3279 66.8623 44.3279 67.4538 44.3649C68.4889 44.4758 69.561 44.8825 70.2265 45.6588C72.075 47.8031 70.6332 51.0195 68.1562 51.7589C67.121 52.0916 66.012 52.0916 64.9029 52.0177C63.4611 51.9438 61.9823 51.7959 60.7623 50.9825C59.1356 49.9104 58.5811 47.4334 60.0968 45.9916C60.6883 45.437 61.4647 45.1413 62.2411 44.9194C63.3132 44.6976 64.4592 44.4388 65.6423 44.3649Z" fill="#CBBEBB"/>
<path opacity="0.2" fill-rule="evenodd" clip-rule="evenodd" d="M54.2559 47.7292C53.7013 47.988 53.1837 48.3947 52.9249 48.7644C52.7031 49.1341 52.7401 49.5408 52.888 49.9105C52.9989 50.2062 53.1098 50.465 53.3316 50.6868C53.9601 51.2784 55.4389 51.2784 56.1413 50.8347C56.7328 50.465 57.2134 49.5408 57.1025 48.8383C57.0286 48.3577 56.5849 47.8401 56.1783 47.5814C55.6977 47.2486 54.9213 47.3965 54.2559 47.7292Z" fill="#CBBEBB"/>
</svg>
