<svg width="74" height="40" viewBox="0 0 74 40" fill="none" xmlns="http://www.w3.org/2000/svg">
<path fill-rule="evenodd" clip-rule="evenodd" d="M73.9981 30.7622C74.0352 32.5017 73.517 34.2413 72.5547 35.6847C71.0743 37.9424 68.4836 39.5339 65.4118 39.5339H8.82297C5.45503 39.5339 2.34617 37.5723 1.0138 34.4633C0.532663 33.316 0.23658 32.0576 0.088539 30.7992C0.0145184 30.0219 -0.0224908 29.2077 0.0145195 28.3934C0.310602 21.8054 4.52978 15.2173 10.8956 16.1056C10.8956 16.1056 10.8956 16.1056 10.9326 16.1056C10.8585 15.1433 10.8585 14.218 10.9696 13.3297C12.487 1.00489 31.5473 -6.3234 39.9487 7.48191C40.6148 8.59225 41.244 9.85064 41.7622 11.2201C50.2375 3.07753 65.0046 11.4792 62.2289 22.6566C60.3784 30.096 60.3784 30.096 62.2289 22.6566C67.1883 21.9534 70.5562 23.6189 72.4437 26.1727C73.443 27.5792 73.9611 29.2077 73.9981 30.7622Z" fill="#EDEDED"/>
<path opacity="0.5" fill-rule="evenodd" clip-rule="evenodd" d="M40.4668 14.5895C40.3558 16.07 39.9487 17.7725 38.6163 18.4017C37.469 18.9569 36.0626 18.4387 34.9893 17.7355C33.916 17.0323 32.9537 16.107 31.6954 15.7369C29.2527 14.9967 26.773 16.6252 24.9225 18.3647C23.072 20.1043 21.1844 22.1399 18.6677 22.51C16.4101 22.8431 14.1155 21.6217 12.7091 19.8452C11.8578 18.7348 11.2657 17.4764 10.8956 16.107C10.8956 16.107 10.8956 16.107 10.9326 16.107C9.63721 2.15366 30.9182 -7.32129 39.9487 7.44631C40.4298 9.77804 40.6149 12.1838 40.4668 14.5895Z" fill="white"/>
<path opacity="0.5" fill-rule="evenodd" clip-rule="evenodd" d="M18.6677 24.5063C17.3354 25.7277 15.1147 25.0985 13.4863 25.8758C11.3397 26.9121 11.0436 29.91 9.34114 31.6126C7.56464 33.3891 4.45577 33.3151 2.4202 31.7976L2.38319 31.7606C0.569683 30.3912 -0.170523 28.0595 0.273601 25.8388C1.38391 20.213 5.34402 15.2905 10.8586 16.1047C10.8586 16.1047 10.8586 16.1047 10.8956 16.1047C10.8215 15.1424 10.8216 14.2171 10.9326 13.3289C14.2265 13.921 17.2613 16.0677 18.7418 19.1027C19.1489 19.9169 19.445 20.8052 19.519 21.7305C19.63 22.7298 19.4079 23.8031 18.6677 24.5063Z" fill="white"/>
<path opacity="0.9" fill-rule="evenodd" clip-rule="evenodd" d="M29.1047 3.04074C28.7346 2.37453 28.0314 1.93039 27.2542 1.93039C25.3297 1.89338 23.4051 2.07843 21.7397 3.00372C21.2215 3.29981 20.7404 3.66993 20.5553 4.2251C20.4813 4.48418 20.4813 4.74327 20.4813 5.00235C20.5183 5.55752 20.6294 6.14971 20.9995 6.55683C21.3696 6.96396 21.9247 7.11201 22.4429 7.11201C22.961 7.075 23.4792 6.85293 23.9233 6.55683C24.2564 6.33476 24.5525 6.03867 24.8485 5.8166C25.4407 5.37246 26.1439 5.11338 26.8471 4.96534C27.4023 4.8543 28.0314 4.81729 28.5126 4.5212C29.0677 4.22511 29.4008 3.52189 29.1047 3.04074Z" fill="white"/>
<path opacity="0.9" fill-rule="evenodd" clip-rule="evenodd" d="M18.1868 7.33496C17.8537 7.33496 17.5206 7.40899 17.2615 7.63105C16.7434 8.07519 16.2993 8.63037 16.0402 9.29657C15.8922 9.66669 15.7811 10.1108 15.8181 10.518C15.8922 10.9251 16.1142 11.3322 16.4843 11.5173C16.7804 11.6653 17.1135 11.6653 17.4096 11.5913C18.4459 11.4062 19.4081 10.629 19.7782 9.62968C19.9263 9.22255 20.0003 8.77841 19.8893 8.37129C19.7412 7.7791 19.2231 7.37197 18.5939 7.37197L18.1868 7.33496Z" fill="white"/>
<path opacity="0.9" fill-rule="evenodd" clip-rule="evenodd" d="M8.78594 18.2535C7.2315 18.4755 5.82511 19.2898 4.86284 20.5112C4.04862 21.5845 3.45645 22.8799 3.2714 24.2123C3.19738 24.6194 3.19738 25.1006 3.53047 25.3597C3.71553 25.5077 3.97459 25.5447 4.19666 25.5817C4.60377 25.6188 5.01088 25.6188 5.34398 25.4707C5.93614 25.1746 6.1582 24.5084 6.38027 23.9162C6.8614 22.6948 7.63862 21.3994 8.89697 20.9923C8.97099 20.9553 9.04501 20.9553 9.11903 20.9183C9.56315 20.8073 9.97026 20.5112 10.1553 20.067C10.7475 18.9937 9.71119 18.0684 8.78594 18.2535Z" fill="white"/>
<path opacity="0.9" fill-rule="evenodd" clip-rule="evenodd" d="M43.6125 11.9975C43.2794 12.2566 42.9834 12.5527 42.7983 12.9228C42.6133 13.2559 42.5762 13.663 42.6873 14.0331C42.9834 14.9214 44.0196 14.9214 44.7228 14.5513C45.315 14.2552 45.7591 13.737 46.2773 13.2929C47.1285 12.6267 48.1648 12.2936 49.2011 11.9975C49.5342 11.9235 49.8673 11.8124 50.1634 11.5904C50.4224 11.3683 50.6075 10.9982 50.4594 10.6651C50.3114 10.332 49.9043 10.2209 49.5342 10.1839C48.3499 10.0729 47.1285 10.2209 46.0552 10.7021L45.5371 10.9242C44.8339 11.2573 44.2047 11.5904 43.6125 11.9975Z" fill="white"/>
<path opacity="0.2" fill-rule="evenodd" clip-rule="evenodd" d="M62.8578 26.025C63.6721 25.951 64.4863 25.951 65.2635 26.062C66.6699 26.21 68.0393 26.7282 68.9645 27.8015C71.4072 30.6514 69.5197 34.9078 66.2258 35.9071C64.8564 36.3142 63.376 36.3512 61.9326 36.2772C60.008 36.2032 58.0465 35.9441 56.418 34.9077C54.2344 33.5013 53.4942 30.1703 55.5298 28.2827C56.307 27.5425 57.3433 27.1723 58.3796 26.8762C59.786 26.4691 61.3404 26.173 62.8578 26.025Z" fill="#CBBEBB"/>
<path opacity="0.2" fill-rule="evenodd" clip-rule="evenodd" d="M47.7208 30.5049C46.9806 30.875 46.2774 31.3931 45.9443 31.9113C45.6112 32.3925 45.7222 32.9476 45.9073 33.4288C46.0553 33.7989 46.2034 34.169 46.4994 34.4281C47.3507 35.2423 49.3122 35.2053 50.2375 34.6132C51.0517 34.132 51.6809 32.9106 51.5328 31.9483C51.4218 31.3191 50.8667 30.6159 50.3485 30.2828C49.6453 29.8757 48.646 30.0607 47.7208 30.5049Z" fill="#CBBEBB"/>
</svg>
